<?xml version="1.0" encoding="iso-8859-1"?>
<!-- Uploaded to: SVG Repo, www.svgrepo.com, Generator: SVG Repo Mixer Tools -->
<svg height="800px" width="800px" version="1.1" id="Layer_1" xmlns="http://www.w3.org/2000/svg" xmlns:xlink="http://www.w3.org/1999/xlink" 
	 viewBox="0 0 512 512" xml:space="preserve">
<path style="fill:#FFFF84;" d="M233.739,194.783c0,64.545-52.324,116.87-116.87,116.87S0,259.328,0,194.783
	s52.324-116.87,116.87-116.87S233.739,130.237,233.739,194.783z"/>
<path style="fill:#FFF873;" d="M233.739,194.783c0,64.545-52.324,116.87-116.87,116.87c-5.67,0-11.242-0.412-16.696-1.192
	c56.635-8.102,100.174-56.802,100.174-115.678S156.809,87.208,100.174,79.105c5.454-0.78,11.026-1.192,16.696-1.192
	C181.415,77.913,233.739,130.237,233.739,194.783z"/>
<path style="fill:#FFD327;" d="M178.087,194.783c0,33.81-27.408,61.217-61.217,61.217s-61.217-27.408-61.217-61.217
	s27.408-61.217,61.217-61.217S178.087,160.973,178.087,194.783z"/>
<path style="fill:#FFC200;" d="M178.087,194.783c0,33.81-27.408,61.217-61.217,61.217c-5.791,0-11.386-0.821-16.696-2.324
	c25.691-7.269,44.522-30.875,44.522-58.893s-18.83-51.624-44.522-58.893c5.309-1.503,10.904-2.324,16.696-2.324
	C150.679,133.565,178.087,160.973,178.087,194.783z"/>
<path style="fill:#AFF2D8;" d="M512,322.783L512,322.783c0,61.472-49.832,111.304-111.304,111.304H178.087
	c-61.471,0-111.304-49.832-111.304-111.304l0,0c0-61.471,49.832-111.304,111.304-111.304h5.099
	c14.184-45.156,56.368-77.913,106.206-77.913l0,0c49.838,0,92.022,32.757,106.206,77.913h5.099
	C462.168,211.478,512,261.31,512,322.783z"/>
<path style="fill:#87CEB7;" d="M400.696,434.087h-13.913h-25.043c55.578,0,100.583-45.261,100.171-100.934
	c-0.409-55.234-46.192-99.414-101.428-99.414h-29.733h-25.043c-6.678,0-11.983-5.881-11.016-12.748
	c0.78-5.544,5.799-9.513,11.398-9.513h13.865c8.031,0,13.498-8.281,10.197-15.603c-12.897-28.602-38.137-50.428-68.942-58.693
	c9.003-2.35,18.444-3.617,28.183-3.617l0,0c49.838,0,92.022,32.757,106.206,77.913h5.1C462.167,211.478,512,261.31,512,322.783l0,0
	C512,384.255,462.168,434.087,400.696,434.087z"/>
</svg>